<?xml version="1.0" encoding="utf-8"?>
<!-- Generator: Adobe Illustrator 15.0.2, SVG Export Plug-In . SVG Version: 6.00 Build 0)  -->
<!DOCTYPE svg PUBLIC "-//W3C//DTD SVG 1.1//EN" "http://www.w3.org/Graphics/SVG/1.1/DTD/svg11.dtd">
<svg version="1.1" id="Layer_1" xmlns="http://www.w3.org/2000/svg" xmlns:xlink="http://www.w3.org/1999/xlink" x="0px" y="0px"
	 width="612px" height="516px" viewBox="0 83.5 612 516" enable-background="new 0 83.5 612 516" xml:space="preserve">
<g>
	<path d="M521.309,211.15l-52.372-73.321H317.639l-46.554,65.756v-30.841H148.883v40.734l-17.458,0.582v-12.22h-64.01v15.712
		L32.5,219.298V545.17h547V242.574L521.309,211.15z M166.34,190.202h87.288v18.621l-87.288,4.073V190.202z M49.958,527.712V236.173
		l133.84-6.401v60.519l-40.734,22.113v215.308H49.958z M460.789,527.712c30.26-16.875,54.119-44.807,65.175-77.976
		c12.22-21.531,18.622-46.553,18.622-73.322c0-83.795-67.503-151.297-151.299-151.297s-151.298,67.502-151.298,151.297
		c0,26.769,6.983,51.791,19.204,73.322c11.056,33.169,34.333,61.101,65.174,77.976H160.521V322.878l40.734-22.113v-72.157
		l75.649-3.491l49.463-69.83h133.841l49.462,69.83l52.372,27.932v274.663H460.789z M393.287,510.256
		c-73.903,0-133.84-59.938-133.84-133.841c0-73.903,59.937-133.84,133.84-133.84s133.841,59.938,133.841,133.84
		C527.128,450.318,467.19,510.256,393.287,510.256z"/>
	<path d="M393.287,277.489c-54.699,0-98.926,44.225-98.926,98.925c0,54.701,44.227,98.925,98.926,98.925
		c54.7,0,98.926-44.225,98.926-98.925C492.213,321.714,447.987,277.489,393.287,277.489z M413.654,417.148
		c-8.146,0-14.548-6.4-14.548-14.548c0-8.147,6.401-14.547,14.548-14.547s14.548,6.4,14.548,14.547
		C428.202,410.748,421.801,417.148,413.654,417.148z M434.021,370.595c-12.803,0-23.277-10.475-23.277-23.276
		c0-12.803,10.475-23.277,23.277-23.277c12.802,0,23.276,10.474,23.276,23.277C457.298,360.12,446.823,370.595,434.021,370.595z"/>
</g>
</svg>
