<?xml version="1.0" encoding="utf-8"?>
<!-- Generator: Adobe Illustrator 15.0.2, SVG Export Plug-In . SVG Version: 6.00 Build 0)  -->
<!DOCTYPE svg PUBLIC "-//W3C//DTD SVG 1.1//EN" "http://www.w3.org/Graphics/SVG/1.1/DTD/svg11.dtd">
<svg version="1.1" id="Layer_1" xmlns="http://www.w3.org/2000/svg" xmlns:xlink="http://www.w3.org/1999/xlink" x="0px" y="0px"
	 width="612px" height="516px" viewBox="0 83.5 612 516" enable-background="new 0 83.5 612 516" xml:space="preserve">
<path d="M494.415,407.855c-12.771-1.087-86.624-23.384-113.832-34.805c-0.556,32.086-1.666,86.47-2.222,90.275
	c-0.555,5.983-9.439,33.175-36.648,68.523c0,0-2.221-23.929-4.441-52.751c-1.668-21.754-16.104-33.175-16.104-44.595
	c0-2.719,10.55-9.789,10.55-16.859s-2.222-14.138-17.213-14.138c-14.993,0-17.214,7.067-17.214,14.138s10.549,14.141,10.549,16.859
	c0,11.42-13.881,22.841-16.103,44.595c-2.221,28.822-4.442,52.751-4.442,52.751c-27.208-35.349-36.093-62.54-36.649-68.523
	c-0.555-4.35-1.666-58.189-2.221-90.275c-27.208,11.421-101.061,33.718-113.833,34.805c-14.992,1.089-18.879,5.438-26.098,17.946
	c-7.774,12.51-25.542,74.505-28.319,114.205c23.322,8.7,131.602,41.332,234.885,41.332c103.282,0,211.562-32.632,233.774-41.332
	c-2.777-39.7-20.547-101.695-28.319-114.205C513.295,413.294,509.408,409.487,494.415,407.855z"/>
<path d="M226.769,234.918c0.556,6.526,1.666,24.473,3.332,39.156c1.111,14.684,9.996,12.508,11.662,10.877
	c0,20.122,16.658,39.699,16.658,39.699c7.774,11.964,34.982,28.279,56.639,28.279c-39.98,0-56.639-15.771-56.639-15.771
	c0,10.876,0,25.016,0,30.454l48.865,32.629h14.992l48.865-32.629c0-8.701,0-43.506,0-43.506s16.659-20.122,16.659-39.7
	c1.665,1.631,10.55,3.807,11.661-10.876c1.11-14.683,2.775-32.63,3.332-39.155c0.555-6.526-8.33-5.438-8.885-1.632
	c0-5.438-0.556-7.614,0-8.157c0.555-0.544,5.553-5.982,5.553-10.876s2.775-8.158,2.775-17.403c0-9.245,0-32.63,0-39.156
	c0-5.982-6.108-2.719-6.108-5.982c0-3.263-3.886-17.946-23.876-17.946c5.553-4.351,8.885-17.947,7.772-23.929
	c-1.665,4.351-9.994,7.07-14.436,7.07c-22.768,0.543-31.652-14.14-58.86-13.596c-36.094,0.544-49.421,19.035-49.421,30.455
	c-19.99,0-23.877,14.683-23.877,17.946c0,3.263-6.107-0.543-6.107,5.982c0,5.982,0,29.911,0,39.156
	c0,9.245,2.775,12.508,2.775,17.403s4.998,10.333,5.553,10.876c0.556,0.543,0,2.719,0,8.158
	C235.654,229.479,226.769,227.849,226.769,234.918z"/>
</svg>
