<?xml version="1.0" encoding="utf-8"?>
<!-- Generator: Adobe Illustrator 15.0.2, SVG Export Plug-In . SVG Version: 6.00 Build 0)  -->
<!DOCTYPE svg PUBLIC "-//W3C//DTD SVG 1.1//EN" "http://www.w3.org/Graphics/SVG/1.1/DTD/svg11.dtd">
<svg version="1.1" id="Layer_1" xmlns="http://www.w3.org/2000/svg" xmlns:xlink="http://www.w3.org/1999/xlink" x="0px" y="0px"
	 width="612px" height="516px" viewBox="0 83.5 612 516" enable-background="new 0 83.5 612 516" xml:space="preserve">
<g>
	<rect x="58.084" y="262.011" fill="none" width="71.763" height="7.576"/>
	<rect x="58.084" y="236.503" fill="none" width="21.591" height="7.577"/>
	<rect x="46.358" y="466.069" fill="none" width="6.542" height="7.553"/>
	<rect x="84.994" y="504.608" fill="none" width="78.397" height="7.564"/>
	<rect x="46.358" y="478.825" fill="none" width="6.542" height="7.551"/>
	<rect x="168.568" y="504.608" fill="none" width="21.591" height="7.564"/>
	<rect x="46.358" y="491.579" fill="none" width="6.542" height="7.564"/>
	<rect x="58.084" y="249.257" fill="none" width="53.819" height="7.577"/>
	<rect x="46.358" y="504.333" fill="none" width="6.542" height="7.551"/>
	<rect x="46.358" y="517.087" fill="none" width="6.542" height="7.551"/>
	<rect x="84.994" y="517.087" fill="none" width="122.804" height="7.551"/>
	<rect x="84.994" y="351.29" fill="none" width="171.843" height="7.57"/>
	<rect x="235.295" y="491.579" fill="none" width="21.591" height="7.564"/>
	<rect x="84.994" y="376.798" fill="none" width="145.124" height="7.57"/>
	<rect x="84.994" y="338.536" fill="none" width="122.804" height="7.576"/>
	<rect x="58.084" y="274.765" fill="none" width="53.819" height="7.577"/>
	<rect x="84.994" y="466.069" fill="none" width="171.843" height="7.553"/>
	<rect x="84.994" y="453.315" fill="none" width="122.804" height="7.553"/>
	<rect x="212.975" y="517.087" fill="none" width="21.591" height="7.551"/>
	<rect x="84.994" y="440.837" fill="none" width="78.397" height="7.564"/>
	<rect x="84.994" y="491.579" fill="none" width="145.124" height="7.564"/>
	<rect x="84.994" y="326.057" fill="none" width="78.397" height="7.571"/>
	<rect x="46.358" y="287.519" fill="none" width="6.542" height="7.577"/>
	<rect x="46.358" y="274.765" fill="none" width="6.542" height="7.577"/>
	<rect x="46.358" y="313.027" fill="none" width="6.542" height="7.577"/>
	<rect x="46.358" y="236.503" fill="none" width="6.542" height="7.577"/>
	<rect x="46.358" y="300.273" fill="none" width="6.542" height="7.577"/>
	<path fill="none" d="M558.204,192.983c-0.115,0.086-0.172,0.202-0.135,0.349c0.025,0.146,0.129,0.238,0.252,0.288l6.119,2.099
		c0.129,0.037,0.227,0.019,0.361-0.062c0.098-0.073,0.129-0.165,0.129-0.288v-6.469c0-0.134-0.08-0.239-0.203-0.324
		c-0.135-0.061-0.262-0.049-0.385,0.037l-1.42,1.016l-0.129,0.098c-0.777-0.777-1.664-1.395-2.68-1.842
		c-1.041-0.447-2.154-0.673-3.312-0.673c-1.168,0-2.281,0.227-3.322,0.673s-1.934,1.059-2.699,1.83
		c-0.771,0.771-1.389,1.671-1.842,2.711c-0.447,1.041-0.668,2.148-0.668,3.323c0,1.175,0.221,2.283,0.668,3.323
		c0.453,1.034,1.07,1.94,1.842,2.711c0.766,0.771,1.658,1.383,2.699,1.83c1.041,0.441,2.154,0.673,3.322,0.673
		c0.705,0,1.402-0.092,2.082-0.263c0.68-0.165,1.309-0.41,1.916-0.734c0.6-0.318,1.168-0.716,1.695-1.181
		c0.52-0.465,0.984-0.998,1.389-1.591c0.072-0.116,0.098-0.214,0.072-0.312c-0.035-0.135-0.084-0.227-0.17-0.275l-2.148-1.493
		c-0.109-0.074-0.215-0.092-0.355-0.074c-0.135,0.024-0.232,0.092-0.307,0.202c-0.451,0.704-1.076,1.249-1.799,1.64
		c-0.74,0.392-1.535,0.582-2.398,0.582c-0.68,0-1.346-0.128-1.939-0.398c-0.631-0.263-1.15-0.624-1.623-1.083
		c-0.445-0.453-0.812-0.985-1.088-1.604c-0.264-0.612-0.393-1.267-0.393-1.953c0-0.691,0.129-1.34,0.393-1.958
		c0.275-0.612,0.635-1.151,1.088-1.604c0.465-0.453,0.992-0.814,1.623-1.083c0.594-0.263,1.26-0.397,1.939-0.397
		c0.594,0,1.15,0.092,1.678,0.281c0.525,0.184,1.002,0.453,1.426,0.796l-0.24,0.177L558.204,192.983z"/>
	<path fill="none" d="M576.308,143.717c0-2.325-1.891-4.229-4.217-4.229H39.883c-2.326,0-4.223,1.903-4.223,4.229v29.493h540.647
		V143.717z M528.554,161.533c-2.859,0-5.178-2.313-5.178-5.177c0-2.864,2.318-5.178,5.178-5.178c2.857,0,5.176,2.319,5.176,5.178
		C533.729,159.213,531.411,161.533,528.554,161.533z M544.091,161.533c-2.857,0-5.178-2.313-5.178-5.177
		c0-2.864,2.32-5.178,5.178-5.178c2.859,0,5.178,2.319,5.178,5.178C549.269,159.213,546.95,161.533,544.091,161.533z
		 M559.63,161.533c-2.869,0-5.178-2.313-5.178-5.177c0-2.864,2.309-5.178,5.178-5.178c2.859,0,5.178,2.319,5.178,5.178
		C564.808,159.213,562.489,161.533,559.63,161.533z"/>
	<rect x="46.358" y="249.257" fill="none" width="6.542" height="7.577"/>
	<rect x="46.358" y="325.781" fill="none" width="6.542" height="7.577"/>
	<rect x="46.358" y="338.536" fill="none" width="6.542" height="7.576"/>
	<rect x="46.358" y="453.315" fill="none" width="6.542" height="7.553"/>
	<rect x="46.358" y="415.06" fill="none" width="6.542" height="7.57"/>
	<rect x="46.358" y="440.567" fill="none" width="6.542" height="7.578"/>
	<rect x="46.358" y="402.306" fill="none" width="6.542" height="7.57"/>
	<rect x="46.358" y="427.813" fill="none" width="6.542" height="7.57"/>
	<rect x="46.358" y="389.552" fill="none" width="6.542" height="7.576"/>
	<rect x="46.358" y="351.29" fill="none" width="6.542" height="7.57"/>
	<rect x="46.358" y="364.043" fill="none" width="6.542" height="7.571"/>
	<rect x="46.358" y="376.798" fill="none" width="6.542" height="7.57"/>
	<rect x="46.358" y="262.011" fill="none" width="6.542" height="7.576"/>
	<rect x="58.084" y="517.087" fill="none" width="21.591" height="7.551"/>
	<rect x="58.084" y="466.069" fill="none" width="21.591" height="7.553"/>
	<rect x="262.008" y="466.069" fill="none" width="21.598" height="7.553"/>
	<rect x="262.008" y="351.29" fill="none" width="21.598" height="7.57"/>
	<rect x="58.084" y="478.825" fill="none" width="172.033" height="7.551"/>
	<rect x="58.084" y="491.579" fill="none" width="21.591" height="7.564"/>
	<rect x="58.084" y="504.608" fill="none" width="21.591" height="7.564"/>
	<rect x="58.084" y="287.519" fill="none" width="53.819" height="7.577"/>
	<rect x="58.084" y="338.536" fill="none" width="21.591" height="7.576"/>
	<path fill="none" d="M372.927,543.507h199.158c2.332,0,4.223-1.904,4.223-4.229V219.024H372.927V543.507z M403.626,236.503h146.586
		v42.46H403.626V236.503z M403.626,306.424h146.586v84.915H403.626V306.424z M403.626,409.056h73.305v15.967h-73.305V409.056z
		 M403.626,442.263h146.586v15.975H403.626V442.263z M403.626,475.483h146.586v15.967H403.626V475.483z M403.626,508.696h146.586
		v15.941H403.626V508.696z"/>
	<rect x="58.084" y="351.29" fill="none" width="21.591" height="7.57"/>
	<rect x="58.084" y="326.057" fill="none" width="21.591" height="7.571"/>
	<rect x="58.084" y="364.043" fill="none" width="172.033" height="7.571"/>
	<rect x="58.084" y="300.273" fill="none" width="21.591" height="7.577"/>
	<rect x="58.084" y="313.027" fill="none" width="36.102" height="7.577"/>
	<rect x="58.084" y="453.315" fill="none" width="21.591" height="7.553"/>
	<rect x="58.084" y="427.813" fill="none" width="36.102" height="7.57"/>
	<rect x="58.084" y="415.06" fill="none" width="44.156" height="7.57"/>
	<rect x="58.084" y="440.837" fill="none" width="21.591" height="7.564"/>
	<rect x="58.084" y="389.552" fill="none" width="105.307" height="7.576"/>
	<rect x="58.084" y="402.306" fill="none" width="88.318" height="7.57"/>
	<rect x="58.084" y="376.798" fill="none" width="21.591" height="7.57"/>
	<path d="M537.868,189.269v14.052c0,1.138-0.918,2.062-2.057,2.062h0.012c1.15,0,2.057-0.924,2.057-2.062v-14.052
		c0-1.138-0.93-2.056-2.068-2.056C536.944,187.212,537.868,188.13,537.868,189.269z"/>
	<circle cx="528.554" cy="156.355" r="5.177"/>
	<circle cx="544.091" cy="156.355" r="5.177"/>
	<circle cx="559.63" cy="156.355" r="5.177"/>
	<g>
		<rect x="58.084" y="313.027" fill="none" width="36.102" height="7.577"/>
		<rect x="58.084" y="338.536" fill="none" width="21.591" height="7.576"/>
		<rect x="58.084" y="364.043" fill="none" width="172.033" height="7.571"/>
		<rect x="58.084" y="402.306" fill="none" width="88.318" height="7.57"/>
		<rect x="58.084" y="351.29" fill="none" width="21.591" height="7.57"/>
		<rect x="58.084" y="415.06" fill="none" width="44.156" height="7.57"/>
		<rect x="84.994" y="376.798" fill="none" width="145.124" height="7.57"/>
		<rect x="84.994" y="440.837" fill="none" width="78.397" height="7.57"/>
		<rect x="84.994" y="453.315" fill="none" width="122.804" height="7.553"/>
		<rect x="58.084" y="326.057" fill="none" width="21.591" height="7.571"/>
		<rect x="58.084" y="262.011" fill="none" width="71.763" height="7.576"/>
		<rect x="58.084" y="287.519" fill="none" width="53.819" height="7.577"/>
		<rect x="84.994" y="326.057" fill="none" width="78.397" height="7.571"/>
		<rect x="84.994" y="466.069" fill="none" width="171.843" height="7.553"/>
		<rect x="58.084" y="236.503" fill="none" width="21.591" height="7.577"/>
		<rect x="84.994" y="338.536" fill="none" width="122.804" height="7.576"/>
		<rect x="58.084" y="274.765" fill="none" width="53.819" height="7.577"/>
		<rect x="58.084" y="300.273" fill="none" width="21.591" height="7.577"/>
		<polygon fill="none" points="60.14,200.413 60.146,200.413 60.146,191.931 53.182,191.931 53.182,188.534 53.182,188.522 
			44.437,196.172 53.188,203.797 53.188,200.419 53.188,200.413 		"/>
		<rect x="84.994" y="491.579" fill="none" width="145.124" height="7.57"/>
		<rect x="168.568" y="504.608" fill="none" width="21.591" height="7.564"/>
		<rect x="84.994" y="504.608" fill="none" width="78.397" height="7.564"/>
		<rect x="58.084" y="478.825" fill="none" width="172.033" height="7.551"/>
		<path fill="none" d="M576.302,143.717c0-2.325-1.885-4.229-4.211-4.229H39.883c-2.326,0-4.223,1.903-4.223,4.229v29.493h540.642
			V143.717z"/>
		<path fill="none" d="M558.204,192.983c-0.115,0.086-0.172,0.202-0.135,0.349c0.025,0.146,0.129,0.238,0.252,0.288l6.119,2.099
			c0.135,0.037,0.227,0.019,0.361-0.062c0.086-0.073,0.129-0.165,0.129-0.288v-6.469c0-0.134-0.074-0.239-0.203-0.324
			c-0.135-0.061-0.25-0.049-0.385,0.037l-1.42,1.016l-0.129,0.098c-0.771-0.777-1.664-1.395-2.68-1.842
			c-1.041-0.447-2.154-0.673-3.312-0.673c-1.168,0-2.281,0.227-3.322,0.673s-1.934,1.059-2.699,1.83
			c-0.771,0.771-1.389,1.671-1.842,2.711c-0.447,1.041-0.668,2.148-0.668,3.323c0,1.175,0.221,2.283,0.668,3.323
			c0.453,1.034,1.07,1.94,1.842,2.711c0.766,0.771,1.658,1.383,2.699,1.83c1.041,0.441,2.154,0.673,3.322,0.673
			c0.705,0,1.402-0.092,2.082-0.263c0.68-0.165,1.303-0.41,1.916-0.734c0.586-0.318,1.168-0.716,1.695-1.181
			c0.52-0.465,0.99-0.998,1.389-1.591c0.072-0.116,0.098-0.214,0.072-0.312c-0.035-0.135-0.084-0.227-0.17-0.275l-2.148-1.493
			c-0.109-0.074-0.227-0.092-0.355-0.074c-0.146,0.024-0.232,0.092-0.307,0.202c-0.451,0.704-1.076,1.249-1.799,1.64
			c-0.74,0.392-1.535,0.582-2.398,0.582c-0.68,0-1.34-0.128-1.939-0.398c-0.631-0.263-1.164-0.624-1.623-1.083
			c-0.453-0.453-0.812-0.985-1.088-1.604c-0.264-0.612-0.393-1.267-0.393-1.953c0-0.691,0.129-1.34,0.393-1.958
			c0.275-0.612,0.643-1.151,1.088-1.604c0.465-0.453,0.992-0.814,1.623-1.083c0.586-0.263,1.26-0.397,1.939-0.397
			c0.588,0,1.15,0.092,1.678,0.281c0.525,0.184,1.002,0.453,1.426,0.796l-0.24,0.177L558.204,192.983z"/>
		<rect x="84.994" y="351.29" fill="none" width="171.843" height="7.57"/>
		<rect x="58.084" y="440.837" fill="none" width="21.591" height="7.564"/>
		<rect x="58.084" y="466.069" fill="none" width="21.591" height="7.553"/>
		<rect x="58.084" y="427.813" fill="none" width="36.102" height="7.57"/>
		<rect x="58.084" y="376.798" fill="none" width="21.591" height="7.57"/>
		<polygon fill="none" points="67.711,200.413 74.663,200.413 74.669,200.413 74.669,203.804 74.669,203.81 74.669,203.822 
			83.421,196.172 74.669,188.522 74.669,188.528 74.669,191.931 74.669,191.937 67.711,191.937 67.711,200.407 		"/>
		<rect x="58.084" y="389.552" fill="none" width="105.307" height="7.576"/>
		<polygon fill="none" points="88.151,195.756 91.132,195.756 91.132,204.293 91.138,204.293 95.771,204.293 95.771,199.44 
			95.777,199.44 98.935,199.44 98.935,204.293 98.947,204.293 103.69,204.293 103.696,204.293 103.696,195.756 103.703,195.756 
			106.677,195.756 106.683,195.756 105.949,195.083 97.411,187.212 88.146,195.756 		"/>
		<rect x="58.084" y="249.257" fill="none" width="53.819" height="7.577"/>
		<rect x="58.084" y="453.315" fill="none" width="21.591" height="7.553"/>
		<rect x="262.008" y="466.069" fill="none" width="21.598" height="7.559"/>
		<rect x="46.358" y="300.273" fill="none" width="6.542" height="7.577"/>
		<rect x="58.084" y="504.608" fill="none" width="21.591" height="7.564"/>
		<polygon fill="none" points="53.182,203.81 53.188,203.816 53.188,203.804 		"/>
		<rect x="58.084" y="517.087" fill="none" width="21.591" height="7.551"/>
		
			<rect x="42.995" y="199.989" transform="matrix(0.7536 0.6574 -0.6574 0.7536 143.4949 17.1997)" fill="none" width="11.622" height="0.007"/>
		<rect x="46.358" y="287.519" fill="none" width="6.542" height="7.577"/>
		<rect x="46.358" y="249.257" fill="none" width="6.542" height="7.577"/>
		<rect x="46.358" y="274.765" fill="none" width="6.542" height="7.577"/>
		<rect x="46.358" y="262.011" fill="none" width="6.542" height="7.576"/>
		<rect x="46.358" y="236.503" fill="none" width="6.542" height="7.577"/>
		<path fill="none" d="M372.927,543.501h199.158c2.332,0,4.229-1.898,4.229-4.223v-320.26H372.927V543.501z"/>
		<rect x="262.008" y="351.29" fill="none" width="21.598" height="7.57"/>
		<path fill="none" d="M535.823,205.383c1.15,0,2.057-0.924,2.057-2.062v-14.052c0-1.138-0.93-2.056-2.068-2.056H117.687
			c-1.132,0-2.05,0.918-2.05,2.056v14.052c0,1.138,0.918,2.062,2.05,2.062h418.125H535.823z"/>
		<rect x="235.295" y="491.579" fill="none" width="21.591" height="7.564"/>
		<rect x="58.084" y="491.579" fill="none" width="21.591" height="7.564"/>
		<rect x="84.994" y="517.087" fill="none" width="122.804" height="7.551"/>
		<rect x="212.975" y="517.087" fill="none" width="21.591" height="7.551"/>
		<rect x="46.358" y="402.306" fill="none" width="6.542" height="7.57"/>
		<rect x="46.358" y="427.813" fill="none" width="6.542" height="7.57"/>
		<rect x="46.358" y="453.315" fill="none" width="6.542" height="7.553"/>
		<rect x="46.358" y="478.825" fill="none" width="6.542" height="7.551"/>
		<rect x="46.358" y="440.567" fill="none" width="6.542" height="7.578"/>
		<rect x="46.358" y="466.069" fill="none" width="6.542" height="7.553"/>
		<rect x="46.358" y="491.579" fill="none" width="6.542" height="7.564"/>
		<rect x="46.358" y="517.087" fill="none" width="6.542" height="7.551"/>
		<rect x="46.358" y="504.333" fill="none" width="6.542" height="7.551"/>
		<rect x="46.358" y="351.29" fill="none" width="6.542" height="7.57"/>
		<rect x="46.358" y="313.027" fill="none" width="6.542" height="7.577"/>
		<rect x="46.358" y="415.06" fill="none" width="6.542" height="7.57"/>
		<rect x="46.358" y="364.043" fill="none" width="6.542" height="7.571"/>
		<rect x="46.358" y="325.781" fill="none" width="6.542" height="7.577"/>
		<rect x="46.358" y="338.536" fill="none" width="6.542" height="7.576"/>
		<rect x="46.358" y="376.798" fill="none" width="6.542" height="7.57"/>
		<rect x="46.358" y="389.552" fill="none" width="6.542" height="7.576"/>
		<path d="M572.085,134.421H39.883c-5.123,0-9.296,4.174-9.296,9.302v395.561c0,5.129,4.174,9.295,9.296,9.295h532.202
			c5.129,0,9.303-4.166,9.303-9.295V143.724C581.388,138.595,577.214,134.421,572.085,134.421z M35.66,173.21v-29.493
			c0-2.325,1.897-4.229,4.223-4.229h532.202c2.332,0,4.211,1.903,4.211,4.229v29.493H35.66z M558.456,190.988
			c-0.533-0.189-1.096-0.281-1.678-0.281c-0.68,0-1.359,0.134-1.939,0.397c-0.631,0.27-1.15,0.63-1.623,1.083
			c-0.439,0.459-0.812,0.991-1.088,1.604c-0.264,0.618-0.393,1.267-0.393,1.958c0,0.686,0.129,1.34,0.393,1.953
			c0.275,0.618,0.635,1.15,1.088,1.604c0.453,0.459,0.992,0.82,1.623,1.083c0.605,0.269,1.26,0.398,1.939,0.398
			c0.863,0,1.658-0.19,2.398-0.582c0.723-0.392,1.348-0.937,1.801-1.64c0.072-0.11,0.152-0.178,0.305-0.202
			c0.129-0.018,0.246,0,0.355,0.074l2.148,1.493c0.092,0.049,0.135,0.141,0.172,0.275c0.023,0.098,0,0.196-0.074,0.312
			c-0.393,0.594-0.869,1.126-1.389,1.591c-0.527,0.465-1.115,0.863-1.695,1.181c-0.613,0.324-1.23,0.569-1.916,0.734
			c-0.68,0.171-1.377,0.263-2.08,0.263c-1.17,0-2.283-0.232-3.324-0.673c-1.041-0.447-1.934-1.059-2.699-1.83
			c-0.771-0.771-1.389-1.677-1.842-2.711c-0.447-1.04-0.668-2.148-0.668-3.323c0-1.175,0.221-2.283,0.668-3.323
			c0.453-1.041,1.07-1.94,1.842-2.711c0.766-0.771,1.658-1.383,2.699-1.83s2.154-0.673,3.324-0.673c1.156,0,2.27,0.227,3.311,0.673
			c1.016,0.447,1.914,1.065,2.68,1.842l0.129-0.098l1.42-1.016c0.129-0.085,0.244-0.098,0.385-0.037
			c0.129,0.085,0.203,0.19,0.203,0.324v6.469c0,0.123-0.049,0.214-0.129,0.288c-0.129,0.08-0.221,0.098-0.361,0.062l-6.119-2.099
			c-0.129-0.049-0.227-0.141-0.252-0.288c-0.037-0.147,0.025-0.263,0.135-0.349l1.438-1.022l0.24-0.177
			C559.458,191.441,558.981,191.172,558.456,190.988z M84.994,499.155v-7.57h145.124v7.57H84.994z M190.16,504.608v7.564h-21.591
			v-7.564H190.16z M163.391,504.608v7.564H84.994v-7.564H163.391z M58.084,486.382v-7.551h172.033v7.551H58.084z M53.188,203.797
			l-8.751-7.631l8.745-7.65v0.012v3.396h6.965v8.482H60.14h-6.952v0.006V203.797z M74.669,191.937L74.669,191.937v-3.409v-0.006
			l8.752,7.65l-8.752,7.65v-0.012v-0.006v-3.391h-0.006h-6.952v-0.006v-8.47H74.669z M97.411,187.212l8.543,7.87l0.734,0.673h-0.006
			h-2.975h-0.006v8.538h-0.006h-4.749h-0.012v-4.854h-3.158h-0.006v4.854h-4.633h-0.006v-8.538h-2.98h-0.006L97.411,187.212z
			 M111.903,249.257v7.577H58.084v-7.577H111.903z M58.084,460.874v-7.553h21.591v7.553H58.084z M79.675,466.069v7.553H58.084
			v-7.553H79.675z M58.084,448.407v-7.564h21.591v7.564H58.084z M58.084,435.384v-7.57h36.102v7.57H58.084z M163.391,389.552v7.576
			H58.084v-7.576H163.391z M58.084,384.368v-7.57h21.591v7.57H58.084z M146.402,402.306v7.57H58.084v-7.57H146.402z
			 M163.391,440.837v7.57H84.994v-7.57H163.391z M102.24,415.06v7.57H58.084v-7.57H102.24z M84.994,453.315h122.804v7.553H84.994
			V453.315z M84.994,384.368v-7.57h145.124v7.57H84.994z M58.084,371.614v-7.571h172.033v7.571H58.084z M79.675,351.29v7.57H58.084
			v-7.57H79.675z M58.084,346.112v-7.576h21.591v7.576H58.084z M79.675,333.627H58.084v-7.571h21.591V333.627z M58.084,320.604
			v-7.577h36.102v7.577H58.084z M111.903,287.519v7.577H58.084v-7.577H111.903z M58.084,282.342v-7.577h53.819v7.577H58.084z
			 M79.675,300.273v7.577H58.084v-7.577H79.675z M84.994,338.536h122.804v7.576H84.994V338.536z M163.391,333.627H84.994v-7.571
			h78.397V333.627z M129.847,269.587H58.084v-7.576h71.763V269.587z M79.675,236.503v7.577H58.084v-7.577H79.675z M84.994,473.628
			v-7.551h171.843v7.551H84.994z M84.994,358.86v-7.57h171.843v7.57H84.994L84.994,358.86z M117.687,205.383
			c-1.132,0-2.05-0.924-2.05-2.062v-14.052c0-1.138,0.918-2.056,2.05-2.056h418.125c1.139,0,2.068,0.918,2.068,2.056v14.052
			c0,1.138-0.906,2.062-2.057,2.062h-0.012H117.687z M52.9,524.646h-6.542v-7.553H52.9V524.646z M52.9,511.89h-6.542v-7.551H52.9
			V511.89z M52.9,499.149h-6.542v-7.564H52.9V499.149z M52.9,486.382h-6.542v-7.551H52.9V486.382z M52.9,473.628h-6.542v-7.551H52.9
			V473.628z M52.9,460.874h-6.542v-7.553H52.9V460.874z M52.9,448.146h-6.542v-7.578H52.9V448.146z M52.9,435.384h-6.542v-7.57H52.9
			V435.384z M52.9,422.63h-6.542v-7.57H52.9V422.63z M52.9,409.876h-6.542v-7.57H52.9V409.876z M52.9,397.128h-6.542v-7.576H52.9
			V397.128z M52.9,384.368h-6.542v-7.57H52.9V384.368z M52.9,371.614h-6.542v-7.571H52.9V371.614z M52.9,358.86h-6.542v-7.57H52.9
			V358.86z M52.9,346.112h-6.542v-7.576H52.9V346.112z M52.9,333.358h-6.542v-7.577H52.9V333.358z M52.9,320.604h-6.542v-7.577H52.9
			V320.604z M52.9,307.85h-6.542v-7.577H52.9V307.85z M52.9,295.096h-6.542v-7.577H52.9V295.096z M52.9,282.342h-6.542v-7.577H52.9
			V282.342z M52.9,269.587h-6.542v-7.576H52.9V269.587z M52.9,256.833h-6.542v-7.577H52.9V256.833z M52.9,244.08h-6.542v-7.577H52.9
			V244.08z M53.182,203.822l-8.757-7.638l0,0L53.182,203.822L53.182,203.822z M53.182,203.81L53.182,203.81L53.182,203.81
			L53.182,203.81z M79.675,524.646H58.084v-7.553h21.591V524.646z M79.675,512.179H58.084v-7.564h21.591V512.179z M79.675,499.149
			H58.084v-7.564h21.591V499.149z M207.797,524.646H84.994v-7.553h122.804V524.646z M234.566,524.646h-21.591v-7.553h21.591V524.646
			z M256.886,499.149h-21.591v-7.564h21.591V499.149z M283.606,473.634h-21.598v-7.557h21.598V473.634z M283.606,358.86h-21.598
			v-7.57h21.598V358.86z M576.319,539.271c0,2.332-1.902,4.225-4.229,4.225H372.927V219.012h203.393V539.271z"/>
	</g>
	<rect x="403.626" y="409.056" width="73.305" height="15.967"/>
	<rect x="403.626" y="442.263" width="146.586" height="15.975"/>
	<rect x="403.626" y="475.483" width="146.586" height="15.967"/>
	<rect x="403.626" y="508.696" width="146.586" height="15.941"/>
	<rect x="403.626" y="306.424" width="146.586" height="84.915"/>
	<rect x="403.626" y="236.503" width="146.586" height="42.46"/>
</g>
</svg>
